<mxfile host="app.diagrams.net" modified="2021-09-22T20:41:13.346Z" agent="5.0 (Windows NT 10.0; Win64; x64) AppleWebKit/537.36 (KHTML, like Gecko) Chrome/93.0.4577.82 Safari/537.36" etag="rmlAMLxZ5nITDp5phjZU" version="15.3.0" type="github">
  <diagram id="C5RBs43oDa-KdzZeNtuy" name="Page-1">
    <mxGraphModel dx="2067" dy="703" grid="1" gridSize="10" guides="1" tooltips="1" connect="1" arrows="1" fold="1" page="1" pageScale="1" pageWidth="827" pageHeight="1169" math="0" shadow="0">
      <root>
        <mxCell id="WIyWlLk6GJQsqaUBKTNV-0" />
        <mxCell id="WIyWlLk6GJQsqaUBKTNV-1" parent="WIyWlLk6GJQsqaUBKTNV-0" />
        <mxCell id="ImMLk96hFvE7_JaFkH-o-3" value="" style="edgeStyle=orthogonalEdgeStyle;rounded=0;orthogonalLoop=1;jettySize=auto;html=1;" edge="1" parent="WIyWlLk6GJQsqaUBKTNV-1" source="ImMLk96hFvE7_JaFkH-o-0" target="ImMLk96hFvE7_JaFkH-o-1">
          <mxGeometry relative="1" as="geometry" />
        </mxCell>
        <mxCell id="ImMLk96hFvE7_JaFkH-o-13" value="" style="edgeStyle=orthogonalEdgeStyle;rounded=0;orthogonalLoop=1;jettySize=auto;html=1;" edge="1" parent="WIyWlLk6GJQsqaUBKTNV-1" source="ImMLk96hFvE7_JaFkH-o-0" target="ImMLk96hFvE7_JaFkH-o-12">
          <mxGeometry relative="1" as="geometry" />
        </mxCell>
        <mxCell id="ImMLk96hFvE7_JaFkH-o-0" value="CLIENTE" style="rounded=0;whiteSpace=wrap;html=1;" vertex="1" parent="WIyWlLk6GJQsqaUBKTNV-1">
          <mxGeometry x="294" y="220" width="120" height="60" as="geometry" />
        </mxCell>
        <mxCell id="ImMLk96hFvE7_JaFkH-o-1" value="&lt;ul&gt;&lt;li&gt;ID&lt;/li&gt;&lt;li&gt;ID conta&lt;/li&gt;&lt;li&gt;Nome&lt;/li&gt;&lt;li&gt;Nascimento&lt;/li&gt;&lt;li&gt;Endereço&lt;/li&gt;&lt;li&gt;Estado civil&lt;/li&gt;&lt;li&gt;emprego&lt;/li&gt;&lt;li&gt;&lt;br&gt;&lt;/li&gt;&lt;/ul&gt;" style="text;strokeColor=none;fillColor=none;html=1;whiteSpace=wrap;verticalAlign=middle;overflow=hidden;" vertex="1" parent="WIyWlLk6GJQsqaUBKTNV-1">
          <mxGeometry x="450" y="175" width="154" height="150" as="geometry" />
        </mxCell>
        <mxCell id="ImMLk96hFvE7_JaFkH-o-7" value="" style="edgeStyle=orthogonalEdgeStyle;rounded=0;orthogonalLoop=1;jettySize=auto;html=1;" edge="1" parent="WIyWlLk6GJQsqaUBKTNV-1" source="ImMLk96hFvE7_JaFkH-o-6" target="ImMLk96hFvE7_JaFkH-o-0">
          <mxGeometry relative="1" as="geometry" />
        </mxCell>
        <mxCell id="ImMLk96hFvE7_JaFkH-o-6" value="BANCO" style="rounded=0;whiteSpace=wrap;html=1;" vertex="1" parent="WIyWlLk6GJQsqaUBKTNV-1">
          <mxGeometry x="294" y="80" width="120" height="60" as="geometry" />
        </mxCell>
        <mxCell id="ImMLk96hFvE7_JaFkH-o-15" value="" style="edgeStyle=orthogonalEdgeStyle;rounded=0;orthogonalLoop=1;jettySize=auto;html=1;" edge="1" parent="WIyWlLk6GJQsqaUBKTNV-1" source="ImMLk96hFvE7_JaFkH-o-12" target="ImMLk96hFvE7_JaFkH-o-14">
          <mxGeometry relative="1" as="geometry" />
        </mxCell>
        <mxCell id="ImMLk96hFvE7_JaFkH-o-17" value="" style="edgeStyle=orthogonalEdgeStyle;rounded=0;orthogonalLoop=1;jettySize=auto;html=1;" edge="1" parent="WIyWlLk6GJQsqaUBKTNV-1" source="ImMLk96hFvE7_JaFkH-o-12" target="ImMLk96hFvE7_JaFkH-o-16">
          <mxGeometry relative="1" as="geometry" />
        </mxCell>
        <mxCell id="ImMLk96hFvE7_JaFkH-o-22" value="" style="edgeStyle=orthogonalEdgeStyle;rounded=0;orthogonalLoop=1;jettySize=auto;html=1;" edge="1" parent="WIyWlLk6GJQsqaUBKTNV-1" source="ImMLk96hFvE7_JaFkH-o-12" target="ImMLk96hFvE7_JaFkH-o-21">
          <mxGeometry relative="1" as="geometry" />
        </mxCell>
        <mxCell id="ImMLk96hFvE7_JaFkH-o-12" value="POSSUI" style="rhombus;whiteSpace=wrap;html=1;rounded=0;" vertex="1" parent="WIyWlLk6GJQsqaUBKTNV-1">
          <mxGeometry x="314" y="350" width="80" height="80" as="geometry" />
        </mxCell>
        <mxCell id="ImMLk96hFvE7_JaFkH-o-25" value="" style="edgeStyle=orthogonalEdgeStyle;rounded=0;orthogonalLoop=1;jettySize=auto;html=1;" edge="1" parent="WIyWlLk6GJQsqaUBKTNV-1" source="ImMLk96hFvE7_JaFkH-o-14" target="ImMLk96hFvE7_JaFkH-o-24">
          <mxGeometry relative="1" as="geometry" />
        </mxCell>
        <mxCell id="ImMLk96hFvE7_JaFkH-o-14" value="CONTA POUPANÇA" style="whiteSpace=wrap;html=1;rounded=0;" vertex="1" parent="WIyWlLk6GJQsqaUBKTNV-1">
          <mxGeometry x="454" y="360" width="120" height="60" as="geometry" />
        </mxCell>
        <mxCell id="ImMLk96hFvE7_JaFkH-o-26" style="edgeStyle=orthogonalEdgeStyle;rounded=0;orthogonalLoop=1;jettySize=auto;html=1;exitX=0;exitY=0.5;exitDx=0;exitDy=0;" edge="1" parent="WIyWlLk6GJQsqaUBKTNV-1" source="ImMLk96hFvE7_JaFkH-o-16" target="ImMLk96hFvE7_JaFkH-o-23">
          <mxGeometry relative="1" as="geometry" />
        </mxCell>
        <mxCell id="ImMLk96hFvE7_JaFkH-o-16" value="CONTA CORRENTE" style="whiteSpace=wrap;html=1;rounded=0;" vertex="1" parent="WIyWlLk6GJQsqaUBKTNV-1">
          <mxGeometry x="130" y="360" width="120" height="60" as="geometry" />
        </mxCell>
        <mxCell id="ImMLk96hFvE7_JaFkH-o-28" style="edgeStyle=orthogonalEdgeStyle;rounded=0;orthogonalLoop=1;jettySize=auto;html=1;entryX=0.02;entryY=0.615;entryDx=0;entryDy=0;entryPerimeter=0;" edge="1" parent="WIyWlLk6GJQsqaUBKTNV-1" source="ImMLk96hFvE7_JaFkH-o-21" target="ImMLk96hFvE7_JaFkH-o-27">
          <mxGeometry relative="1" as="geometry">
            <mxPoint x="470" y="550" as="targetPoint" />
          </mxGeometry>
        </mxCell>
        <mxCell id="ImMLk96hFvE7_JaFkH-o-21" value="CONTA SALÁRIO" style="whiteSpace=wrap;html=1;rounded=0;" vertex="1" parent="WIyWlLk6GJQsqaUBKTNV-1">
          <mxGeometry x="294" y="520" width="120" height="60" as="geometry" />
        </mxCell>
        <mxCell id="ImMLk96hFvE7_JaFkH-o-23" value="&lt;ul&gt;&lt;li&gt;ID Conta&lt;/li&gt;&lt;li&gt;ID cartão&lt;/li&gt;&lt;li&gt;ID DA&lt;/li&gt;&lt;li&gt;limite&lt;/li&gt;&lt;li&gt;saldo&lt;/li&gt;&lt;li&gt;codigo PIX&lt;/li&gt;&lt;/ul&gt;" style="text;strokeColor=none;fillColor=none;html=1;whiteSpace=wrap;verticalAlign=middle;overflow=hidden;" vertex="1" parent="WIyWlLk6GJQsqaUBKTNV-1">
          <mxGeometry x="-10" y="330" width="110" height="120" as="geometry" />
        </mxCell>
        <mxCell id="ImMLk96hFvE7_JaFkH-o-24" value="&lt;ul&gt;&lt;li&gt;ID Conta&lt;/li&gt;&lt;li&gt;ID cartão&lt;/li&gt;&lt;li&gt;saldo&lt;/li&gt;&lt;li&gt;juros&lt;/li&gt;&lt;/ul&gt;" style="text;strokeColor=none;fillColor=none;html=1;whiteSpace=wrap;verticalAlign=middle;overflow=hidden;" vertex="1" parent="WIyWlLk6GJQsqaUBKTNV-1">
          <mxGeometry x="610" y="350" width="100" height="80" as="geometry" />
        </mxCell>
        <mxCell id="ImMLk96hFvE7_JaFkH-o-27" value="&lt;ul&gt;&lt;li&gt;ID conta&lt;/li&gt;&lt;li&gt;Saldo&lt;/li&gt;&lt;li&gt;CNPJ Dep&lt;/li&gt;&lt;/ul&gt;" style="text;strokeColor=none;fillColor=none;html=1;whiteSpace=wrap;verticalAlign=middle;overflow=hidden;" vertex="1" parent="WIyWlLk6GJQsqaUBKTNV-1">
          <mxGeometry x="454" y="500" width="100" height="80" as="geometry" />
        </mxCell>
        <mxCell id="ImMLk96hFvE7_JaFkH-o-29" value="Text" style="text;html=1;strokeColor=none;fillColor=none;align=center;verticalAlign=middle;whiteSpace=wrap;rounded=0;" vertex="1" parent="WIyWlLk6GJQsqaUBKTNV-1">
          <mxGeometry x="440" y="410" width="40" height="20" as="geometry" />
        </mxCell>
        <mxCell id="ImMLk96hFvE7_JaFkH-o-30" value="N" style="text;html=1;strokeColor=none;fillColor=none;align=center;verticalAlign=middle;whiteSpace=wrap;rounded=0;" vertex="1" parent="WIyWlLk6GJQsqaUBKTNV-1">
          <mxGeometry x="360" y="140" width="40" height="20" as="geometry" />
        </mxCell>
        <mxCell id="ImMLk96hFvE7_JaFkH-o-31" value="N" style="text;html=1;strokeColor=none;fillColor=none;align=center;verticalAlign=middle;whiteSpace=wrap;rounded=0;" vertex="1" parent="WIyWlLk6GJQsqaUBKTNV-1">
          <mxGeometry x="354" y="280" width="40" height="20" as="geometry" />
        </mxCell>
        <mxCell id="ImMLk96hFvE7_JaFkH-o-32" value="N" style="text;html=1;strokeColor=none;fillColor=none;align=center;verticalAlign=middle;whiteSpace=wrap;rounded=0;" vertex="1" parent="WIyWlLk6GJQsqaUBKTNV-1">
          <mxGeometry x="380" y="370" width="40" height="20" as="geometry" />
        </mxCell>
        <mxCell id="ImMLk96hFvE7_JaFkH-o-33" value="N" style="text;html=1;strokeColor=none;fillColor=none;align=center;verticalAlign=middle;whiteSpace=wrap;rounded=0;" vertex="1" parent="WIyWlLk6GJQsqaUBKTNV-1">
          <mxGeometry x="280" y="370" width="40" height="20" as="geometry" />
        </mxCell>
        <mxCell id="ImMLk96hFvE7_JaFkH-o-34" value="N" style="text;html=1;strokeColor=none;fillColor=none;align=center;verticalAlign=middle;whiteSpace=wrap;rounded=0;" vertex="1" parent="WIyWlLk6GJQsqaUBKTNV-1">
          <mxGeometry x="320" y="420" width="40" height="20" as="geometry" />
        </mxCell>
        <mxCell id="ImMLk96hFvE7_JaFkH-o-35" value="1" style="text;html=1;strokeColor=none;fillColor=none;align=center;verticalAlign=middle;whiteSpace=wrap;rounded=0;" vertex="1" parent="WIyWlLk6GJQsqaUBKTNV-1">
          <mxGeometry x="360" y="200" width="40" height="20" as="geometry" />
        </mxCell>
        <mxCell id="ImMLk96hFvE7_JaFkH-o-37" value="1" style="text;html=1;strokeColor=none;fillColor=none;align=center;verticalAlign=middle;whiteSpace=wrap;rounded=0;" vertex="1" parent="WIyWlLk6GJQsqaUBKTNV-1">
          <mxGeometry x="241" y="370" width="40" height="20" as="geometry" />
        </mxCell>
        <mxCell id="ImMLk96hFvE7_JaFkH-o-40" value="1" style="text;html=1;strokeColor=none;fillColor=none;align=center;verticalAlign=middle;whiteSpace=wrap;rounded=0;" vertex="1" parent="WIyWlLk6GJQsqaUBKTNV-1">
          <mxGeometry x="320" y="500" width="40" height="20" as="geometry" />
        </mxCell>
        <mxCell id="ImMLk96hFvE7_JaFkH-o-42" value="N" style="text;html=1;strokeColor=none;fillColor=none;align=center;verticalAlign=middle;whiteSpace=wrap;rounded=0;" vertex="1" parent="WIyWlLk6GJQsqaUBKTNV-1">
          <mxGeometry x="420" y="370" width="40" height="20" as="geometry" />
        </mxCell>
      </root>
    </mxGraphModel>
  </diagram>
</mxfile>
